<svg width="23" height="23" viewBox="0 0 23 23" fill="none" xmlns="http://www.w3.org/2000/svg">
<g clip-path="url(#clip0_23_365)">
<path d="M4.04525 17.7868C3.72325 17.7868 3.41371 17.8671 3.13909 18.0181C1.69247 16.1636 0.898438 13.86 0.898438 11.5C0.898438 5.65419 5.65419 0.898438 11.5 0.898438C12.2107 0.898438 12.921 0.969154 13.6113 1.10866C13.8542 1.15779 14.0914 1.00056 14.1406 0.757355C14.1897 0.514145 14.0325 0.277252 13.7893 0.227943C13.0405 0.076683 12.2703 0 11.5 0C8.42829 0 5.54031 1.19622 3.36826 3.36826C1.19622 5.54031 0 8.42829 0 11.5C0 14.0839 0.87738 16.6055 2.47474 18.627C2.26908 18.9342 2.15853 19.2953 2.15853 19.6735C2.15853 20.1775 2.35489 20.6513 2.71128 21.0075C3.0675 21.3639 3.54128 21.5602 4.04525 21.5602C4.54922 21.5602 5.023 21.3639 5.37939 21.0075C5.73579 20.6513 5.93197 20.1773 5.93197 19.6733C5.93197 19.1695 5.73579 18.6956 5.37939 18.3394C5.023 17.983 4.54922 17.7868 4.04525 17.7868ZM4.744 20.3722C4.55746 20.559 4.30917 20.6618 4.04525 20.6618C3.78133 20.6618 3.53321 20.559 3.3465 20.3722C3.1598 20.1855 3.05697 19.9374 3.05697 19.6735C3.05697 19.4094 3.1598 19.1613 3.3465 18.9746C3.53304 18.7879 3.78133 18.6852 4.04525 18.6852C4.30917 18.6852 4.55729 18.788 4.744 18.9746C4.9307 19.1613 5.03353 19.4094 5.03353 19.6735C5.03353 19.9374 4.9307 20.1855 4.744 20.3722Z" fill="white"/>
<path d="M20.5249 4.37255C21.0132 3.63994 20.9348 2.63832 20.2888 1.99239C19.9325 1.63618 19.4587 1.43982 18.9547 1.43982C18.4508 1.43982 17.977 1.63618 17.6206 1.99239C17.2642 2.34879 17.068 2.82257 17.068 3.32654C17.068 3.83051 17.2642 4.30429 17.6206 4.66068C17.977 5.01707 18.4508 5.21326 18.9547 5.21326C19.2767 5.21326 19.5862 5.13289 19.8609 4.98198C21.3075 6.83659 22.1015 9.14006 22.1015 11.5C22.1015 17.3458 17.3458 22.1016 11.5 22.1016C10.7963 22.1016 10.0927 22.0323 9.40884 21.8954C9.16563 21.8468 8.92892 22.0045 8.88013 22.2477C8.83153 22.4911 8.98928 22.7277 9.23249 22.7765C9.97423 22.9247 10.7372 23 11.5 23C14.5717 23 17.4597 21.8038 19.6317 19.6318C21.8037 17.4597 23 14.5717 23 11.5C23 8.91598 22.1224 6.39421 20.5249 4.37255ZM18.256 4.02546C18.0693 3.83875 17.9665 3.59063 17.9665 3.32654C17.9665 3.06262 18.0693 2.8145 18.256 2.62779C18.4425 2.44109 18.6908 2.33826 18.9547 2.33826C19.2186 2.33826 19.4669 2.44109 19.6536 2.62779C20.0388 3.01314 20.0388 3.64011 19.6536 4.02546C19.4669 4.21199 19.2186 4.31482 18.9547 4.31482C18.6906 4.31482 18.4425 4.21199 18.256 4.02546Z" fill="white"/>
<path d="M9.64624 19.2265C9.64624 19.4747 9.84752 19.6758 10.0955 19.6758H12.9043C13.1524 19.6758 13.3535 19.4747 13.3535 19.2265V18.3557C13.9442 18.1967 14.5089 17.9626 15.0395 17.6569L15.6544 18.2718C15.7386 18.356 15.8528 18.4034 15.9722 18.4034C16.0911 18.4034 16.2055 18.356 16.2898 18.2716L18.2751 16.2849C18.4504 16.1094 18.4504 15.8249 18.2751 15.6496L17.6609 15.0355C17.9666 14.5048 18.2007 13.9402 18.3597 13.3495H19.2272C19.4754 13.3495 19.6765 13.1484 19.6765 12.9003V10.0914C19.6765 9.84333 19.4754 9.64224 19.2272 9.64224H18.3595C18.2005 9.05176 17.9666 8.48708 17.6609 7.95644L18.2718 7.34561C18.356 7.26138 18.4034 7.14697 18.4034 7.02782C18.4032 6.90867 18.3558 6.79426 18.2716 6.71003L16.2847 4.72469C16.1094 4.54939 15.8249 4.54939 15.6495 4.72487L15.0395 5.335C14.5089 5.02932 13.9442 4.79524 13.3535 4.63625V3.77344C13.3535 3.52531 13.1524 3.32422 12.9043 3.32422H10.0955C9.84752 3.32422 9.64624 3.52531 9.64624 3.77344V4.63643C9.05577 4.79524 8.49109 5.02932 7.96045 5.335L7.35032 4.72487C7.17501 4.54957 6.89057 4.54939 6.71509 4.72469L4.72835 6.71021C4.64395 6.79443 4.59657 6.90867 4.59657 7.02782C4.59657 7.14697 4.64395 7.26138 4.72818 7.34561L5.33901 7.95644C5.03333 8.48708 4.79924 9.05158 4.64026 9.64224H3.77429C3.52616 9.64224 3.32507 9.84333 3.32507 10.0913L3.32349 12.9001C3.32331 13.0193 3.37069 13.1337 3.45492 13.2179C3.53915 13.3021 3.65338 13.3495 3.77271 13.3495H4.64026C4.79924 13.9402 5.03333 14.5048 5.33901 15.0355L4.72484 15.6496C4.54954 15.8249 4.54937 16.1094 4.72484 16.2849L6.71018 18.2716C6.79441 18.3558 6.90864 18.4034 7.02779 18.4034H7.02797C7.14711 18.4034 7.26135 18.356 7.34558 18.2718L7.96027 17.6569C8.49109 17.9626 9.05577 18.1967 9.64624 18.3557V19.2265ZM8.13645 16.7121C7.95869 16.5972 7.72478 16.6221 7.57492 16.7718L7.02797 17.3188L5.67768 15.9674L6.22411 15.4208C6.37379 15.2711 6.39871 15.0372 6.28377 14.8595C5.87649 14.2292 5.59011 13.5383 5.43289 12.8059C5.38832 12.599 5.20547 12.4511 4.99367 12.4511H4.2221L4.22315 10.5407H4.99367C5.20547 10.5407 5.38832 10.3929 5.43289 10.1859C5.59011 9.4536 5.87649 8.76275 6.28377 8.13244C6.39871 7.95468 6.37379 7.72077 6.22411 7.57109L5.68119 7.02799L7.03253 5.67771L7.57492 6.22028C7.72478 6.36996 7.95852 6.3947 8.13645 6.27994C8.76658 5.87266 9.45743 5.58628 10.1899 5.42906C10.3968 5.38448 10.5447 5.20146 10.5447 4.98984V4.22266H12.4551V4.98966C12.4551 5.20146 12.6028 5.38448 12.8099 5.42888C13.5422 5.58628 14.2332 5.87248 14.8633 6.27976C15.0411 6.3947 15.275 6.36996 15.4247 6.2201L15.9673 5.67771L17.3186 7.02799L16.7757 7.57092C16.6258 7.72077 16.6011 7.95468 16.716 8.13244C17.1233 8.76275 17.4095 9.4536 17.5669 10.1859C17.6113 10.3929 17.7943 10.5407 18.0061 10.5407H18.778V12.4511H18.0061C17.7943 12.4511 17.6115 12.599 17.5669 12.8059C17.4097 13.5381 17.1233 14.2292 16.716 14.8593C16.6011 15.0372 16.626 15.2711 16.7757 15.4208L17.3221 15.9673L15.9718 17.3186L15.4249 16.7718C15.275 16.622 15.0411 16.5972 14.8633 16.7121C14.233 17.1194 13.5422 17.4056 12.8099 17.563C12.6028 17.6076 12.4551 17.7904 12.4551 18.0022V18.7773H10.5447V18.0022C10.5447 17.7906 10.3968 17.6076 10.1899 17.563C9.45761 17.4058 8.76676 17.1194 8.13645 16.7121Z" fill="white"/>
<path d="M15.2118 11.5C15.2118 9.4533 13.5467 7.78821 11.4999 7.78821C9.45318 7.78821 7.78809 9.4533 7.78809 11.5C7.78809 13.5468 9.45318 15.2119 11.4999 15.2119C13.5467 15.2119 15.2118 13.5468 15.2118 11.5ZM8.68652 11.5C8.68652 9.94867 9.94855 8.68665 11.4999 8.68665C13.0513 8.68665 14.3133 9.94885 14.3133 11.5C14.3133 13.0513 13.0513 14.3135 11.4999 14.3135C9.94855 14.3135 8.68652 13.0514 8.68652 11.5Z" fill="white"/>
<path d="M15.6362 1.69901C15.7545 1.69901 15.8703 1.65093 15.9538 1.56741C16.0374 1.48335 16.0854 1.36754 16.0854 1.24927C16.0854 1.1317 16.0375 1.01571 15.9538 0.931656C15.8703 0.848129 15.7545 0.800049 15.6362 0.800049C15.5176 0.800049 15.4023 0.848129 15.3188 0.931656C15.2351 1.01571 15.187 1.13117 15.187 1.24927C15.187 1.36789 15.2351 1.48335 15.3188 1.56741C15.4023 1.65093 15.5176 1.69901 15.6362 1.69901Z" fill="white"/>
<path d="M7.3833 21.3091C7.26521 21.3091 7.14922 21.3572 7.06569 21.4407C6.98216 21.5242 6.93408 21.6402 6.93408 21.7583C6.93408 21.8769 6.98216 21.9924 7.06569 22.0759C7.14922 22.1594 7.26521 22.2075 7.3833 22.2075C7.5014 22.2075 7.61739 22.1594 7.70091 22.0759C7.78444 21.9924 7.83252 21.8764 7.83252 21.7583C7.83252 21.6402 7.78444 21.5242 7.70091 21.4407C7.61739 21.3572 7.5014 21.3091 7.3833 21.3091Z" fill="white"/>
</g>
<defs>
<clipPath id="clip0_23_365">
<rect width="23" height="23" fill="white"/>
</clipPath>
</defs>
</svg>
