<svg width="16" height="12" viewBox="0 0 16 12" fill="none" xmlns="http://www.w3.org/2000/svg">
<path d="M0.941542 11.5182L0 9.07018C1.1717 8.65172 2.06093 8.09726 2.6677 7.40679C3.27447 6.73725 3.5674 6.0154 3.54647 5.24125C3.50463 5.24125 3.46278 5.24125 3.42093 5.24125C3.37909 5.24125 3.33724 5.24125 3.2954 5.24125C2.56309 5.24125 1.91447 5.02156 1.34954 4.58217C0.784618 4.12186 0.502155 3.47324 0.502155 2.63632C0.502155 1.84124 0.784618 1.20308 1.34954 0.721849C1.91447 0.240616 2.59447 0 3.38955 0C4.43571 0 5.23079 0.387078 5.77479 1.16123C6.31879 1.93539 6.59079 3.00247 6.59079 4.36248C6.59079 6.07817 6.10956 7.56372 5.14709 8.81911C4.18463 10.0745 2.78278 10.9742 0.941542 11.5182ZM10.3508 11.5182L9.40928 9.07018C10.5809 8.65172 11.4702 8.09726 12.0769 7.40679C12.6837 6.73725 12.9766 6.0154 12.9557 5.24125C12.9139 5.24125 12.872 5.24125 12.8302 5.24125C12.7883 5.24125 12.7465 5.24125 12.7046 5.24125C11.9723 5.24125 11.3237 5.02156 10.7588 4.58217C10.1939 4.12186 9.91144 3.47324 9.91144 2.63632C9.91144 1.84124 10.1939 1.20308 10.7588 0.721849C11.3237 0.240616 12.0037 0 12.7988 0C13.845 0 14.64 0.387078 15.184 1.16123C15.728 1.93539 16 3.00247 16 4.36248C16 6.07817 15.5188 7.56372 14.5563 8.81911C13.5939 10.0745 12.192 10.9742 10.3508 11.5182Z" fill="white"/>
<path d="M0.941542 11.5182L0 9.07018C1.1717 8.65172 2.06093 8.09726 2.6677 7.40679C3.27447 6.73725 3.5674 6.0154 3.54647 5.24125C3.50463 5.24125 3.46278 5.24125 3.42093 5.24125C3.37909 5.24125 3.33724 5.24125 3.2954 5.24125C2.56309 5.24125 1.91447 5.02156 1.34954 4.58217C0.784618 4.12186 0.502155 3.47324 0.502155 2.63632C0.502155 1.84124 0.784618 1.20308 1.34954 0.721849C1.91447 0.240616 2.59447 0 3.38955 0C4.43571 0 5.23079 0.387078 5.77479 1.16123C6.31879 1.93539 6.59079 3.00247 6.59079 4.36248C6.59079 6.07817 6.10956 7.56372 5.14709 8.81911C4.18463 10.0745 2.78278 10.9742 0.941542 11.5182ZM10.3508 11.5182L9.40928 9.07018C10.5809 8.65172 11.4702 8.09726 12.0769 7.40679C12.6837 6.73725 12.9766 6.0154 12.9557 5.24125C12.9139 5.24125 12.872 5.24125 12.8302 5.24125C12.7883 5.24125 12.7465 5.24125 12.7046 5.24125C11.9723 5.24125 11.3237 5.02156 10.7588 4.58217C10.1939 4.12186 9.91144 3.47324 9.91144 2.63632C9.91144 1.84124 10.1939 1.20308 10.7588 0.721849C11.3237 0.240616 12.0037 0 12.7988 0C13.845 0 14.64 0.387078 15.184 1.16123C15.728 1.93539 16 3.00247 16 4.36248C16 6.07817 15.5188 7.56372 14.5563 8.81911C13.5939 10.0745 12.192 10.9742 10.3508 11.5182Z" fill="white"/>
</svg>
